<svg xmlns="http://www.w3.org/2000/svg" viewBox="0 0 15.75 9.21"><g id="Layer_2" data-name="Layer 2"><g id="Layer_1-2" data-name="Layer 1"><path d="M13,6.79A.33.33,0,0,0,13,6.67c.11-.93.11-.93.89-.43.52.33,1,.65,1.56,1s.39.42,0,.67l-1.8,1.15c-.47.29-.61.2-.64-.36l0-.42c-.64,0-1.27.05-1.89,0A6,6,0,0,1,7.24,6.11C6.61,5.42,6,4.7,5.38,4A4.55,4.55,0,0,0,1.59,2.39a7.22,7.22,0,0,1-.93,0A.68.68,0,0,1,0,1.67.7.7,0,0,1,.66.92,6.5,6.5,0,0,1,6.54,3c.58.67,1.15,1.35,1.75,2A4.79,4.79,0,0,0,13,6.79Z"/><path d="M13,2.43a4.88,4.88,0,0,0-4.76,1.8l-1-1.16A5.53,5.53,0,0,1,9.83,1.28,29.54,29.54,0,0,1,13,.76c0-.06,0-.25,0-.43,0-.33.23-.41.47-.26.7.43,1.4.88,2.09,1.33a.28.28,0,0,1,0,.51c-.69.45-1.39.9-2.09,1.32-.25.16-.44.07-.46-.25A4.91,4.91,0,0,1,13,2.43Z"/><path d="M5.61,5l.94,1.12A5.9,5.9,0,0,1,2.36,8.3c-.52,0-1,0-1.56,0a.74.74,0,1,1,0-1.48h1A4.35,4.35,0,0,0,5,5.56Z"/></g></g></svg>