<svg xmlns="http://www.w3.org/2000/svg" viewBox="0 0 27.25 27.22"><g id="Layer_2" data-name="Layer 2"><g id="Layer_1-2" data-name="Layer 1"><path d="M21.21,3c0-.73,0-1.43,0-2.12a.81.81,0,0,1,.45-.82c.34-.17.6,0,.86.21l4.3,3.58a.78.78,0,0,1,0,1.36L22.52,8.8c-.41.35-.81.37-1.09,0a1,1,0,0,1-.21-.61c0-.71,0-1.42,0-2.15l-.29,0C17,6,13.05,6,9.12,6a6,6,0,0,0-6.07,6c0,1,0,2,0,3A1.51,1.51,0,0,1,1.23,16.6,1.43,1.43,0,0,1,0,15.28a24.74,24.74,0,0,1,.18-5.09A9,9,0,0,1,8,3.12C9.08,3,10.22,3,11.35,3h9.5Z"/><path d="M6.06,24.2v2.22a.73.73,0,0,1-.42.72A.7.7,0,0,1,4.82,27l-4-3.36-.47-.38a.74.74,0,0,1,0-1.15c1.5-1.27,3-2.52,4.52-3.77a.68.68,0,0,1,.79-.1.73.73,0,0,1,.42.68v2.27h.41c3.85,0,7.71,0,11.56,0a6.09,6.09,0,0,0,6.2-6.25c0-.93,0-1.86,0-2.8a1.5,1.5,0,0,1,1.05-1.47,1.45,1.45,0,0,1,1.66.55,1.57,1.57,0,0,1,.29.82c0,1.36.05,2.72-.06,4.07A8.92,8.92,0,0,1,19.82,24a31.58,31.58,0,0,1-4.24.17c-3.07,0-6.14,0-9.22,0Z"/></g></g></svg>